{"asset":{"generator":"glTF-Transform v4.0.2","version":"2.0","extras":{"author":"Digital Archive of Natural History (DiNArDa) (https://sketchfab.com/disc3d)","license":"CC0-1.0 (http://creativecommons.org/publicdomain/zero/1.0/)","source":"https://sketchfab.com/3d-models/nyctalus-noctula-9e3eb598d23549b38e9c2495c09f63d5","title":"Nyctalus noctula"}},"accessors":[{"type":"VEC3","componentType":5126,"count":39617,"max":[5.957396030426025,9.73680305480957,5.914340019226074],"min":[-5.995516777038574,-8.948792457580566,-2.4419219493865967],"bufferView":0,"byteOffset":0},{"type":"VEC3","componentType":5126,"count":39617,"bufferView":0,"byteOffset":12},{"type":"VEC2","componentType":5126,"count":39617,"bufferView":0,"byteOffset":24},{"type":"SCALAR","componentType":5125,"count":223188,"bufferView":1,"byteOffset":0}],"bufferViews":[{"buffer":0,"byteOffset":0,"byteLength":1267744,"byteStride":32,"target":34962},{"buffer":0,"byteOffset":1267744,"byteLength":892752,"target":34963}],"samplers":[{"magFilter":9729,"minFilter":9987,"wrapS":10497,"wrapT":10497}],"textures":[{"source":0,"sampler":0}],"images":[{"mimeType":"image/png","uri":"textures/Abendsegleruk.1001_diffuse.png"}],"buffers":[{"uri":"scene.bin","byteLength":2160496}],"materials":[{"name":"Abendsegleruk.1001","doubleSided":true,"pbrMetallicRoughness":{"baseColorFactor":[0.8248856707317073,0.8248856707317073,0.8248856707317073,1],"metallicFactor":0,"baseColorTexture":{"index":0}},"extensions":{"KHR_materials_ior":{"ior":1000},"KHR_materials_specular":{"specularColorFactor":[0,0,0]}}}],"meshes":[{"primitives":[{"attributes":{"NORMAL":1,"POSITION":0,"TEXCOORD_0":2},"mode":4,"material":0,"indices":3}]}],"nodes":[{"name":"RootNode (gltf orientation matrix)","rotation":[-0.7071067811865475,0,0,0.7071067811865476],"children":[1]},{"name":"RootNode (model correction matrix)","children":[2]},{"name":"Abendsegleruk.obj.cleaner.materialmerger.gles","children":[3]},{"mesh":0}],"scenes":[{"name":"OSG_Scene","nodes":[0]}],"scene":0,"extensionsUsed":["KHR_materials_ior","KHR_materials_specular"]}